<svg width="64" height="64" viewBox="0 0 64 64" fill="none" xmlns="http://www.w3.org/2000/svg">
<rect width="64" height="64" rx="10" fill="#B4F9C0"/>
<path fill-rule="evenodd" clip-rule="evenodd" d="M8.55437 17C8.2482 17 8 17.2518 8 17.5625V46.4375C8 46.7482 8.2482 47 8.55437 47H55.4456C55.7518 47 56 46.7482 56 46.4375V17.5625C56 17.2518 55.7518 17 55.4456 17H8.55437ZM30.8333 31.4223L22.421 18.6007C22.2684 18.3683 22.0115 18.2286 21.7362 18.2286L17.3095 18.2286C16.8919 18.2286 16.6355 18.6925 16.8533 19.054L22.657 28.6885C22.8245 28.9665 22.6272 29.3234 22.306 29.3234H15.0078C14.7807 29.3234 14.5966 29.1366 14.5966 28.9061L14.5966 19.0632C14.5966 18.6023 14.2283 18.2286 13.774 18.2286H10.1431C9.68881 18.2286 9.32053 18.6023 9.32053 19.0632V33.8422C9.32053 34.3032 9.68881 34.6769 10.1431 34.6769H22.1978C22.5176 34.6769 22.715 35.0309 22.5504 35.3091L16.8426 44.9498C16.6285 45.3114 16.8852 45.7717 17.301 45.7717H21.732C22.0096 45.7717 22.2684 45.6297 22.4203 45.394L30.8369 32.3418C31.0172 32.0622 31.0158 31.7004 30.8333 31.4223ZM54.1184 18.2286H44.9749C44.7129 18.2286 44.4666 18.3553 44.3116 18.5697L40.6973 23.5706C40.3686 24.0253 39.6993 24.0253 39.3706 23.5706L35.7563 18.5697C35.6014 18.3553 35.355 18.2286 35.093 18.2286H25.9495C25.4608 18.2286 25.1661 18.7778 25.4313 19.1943L31.6994 29.0372C31.8131 29.2156 32.0082 29.3234 32.2176 29.3234H33.6014C33.9269 29.3234 34.1234 28.9581 33.9473 28.6803L29.2172 21.2191C28.9884 20.858 29.2438 20.383 29.6669 20.383H34.0826C34.3494 20.383 34.5997 20.5144 34.7539 20.7354L42.1866 31.3865C42.3864 31.6728 42.3884 32.0554 42.1916 32.3439L34.7533 43.2458C34.5997 43.4709 34.347 43.6053 34.077 43.6053H29.6551C29.2345 43.6053 28.9786 43.1352 29.2025 42.774L33.825 35.3163C33.9972 35.0384 33.8004 34.6769 33.4768 34.6769H32.0122C31.7998 34.6769 31.6023 34.7877 31.4895 34.9704L25.4085 44.8132C25.1509 45.2301 25.4463 45.7717 25.9312 45.7717H35.0771C35.348 45.7717 35.6015 45.6364 35.7549 45.4099L39.3561 40.095C39.683 39.6126 40.3849 39.6126 40.7118 40.095L44.313 45.4099C44.4664 45.6364 44.7199 45.7717 44.9908 45.7717H54.1367C54.6216 45.7717 54.917 45.2301 54.6594 44.8132L46.8926 32.2416C46.7229 31.967 46.7253 31.6175 46.8987 31.3453L54.6366 19.1943C54.9018 18.7778 54.6071 18.2286 54.1184 18.2286Z" fill="#1E1E1E"/>
</svg>
