<svg width="123" height="138" viewBox="0 0 123 138" fill="none" xmlns="http://www.w3.org/2000/svg">
<path d="M24.262 97.8145L23.8829 101.796" stroke="#B4F9C0" stroke-linecap="round"/>
<rect x="17.9099" y="101.228" width="12" height="23" rx="2" transform="rotate(5.4379 17.9099 101.228)" fill="#B4F9C0"/>
<path d="M20.8266 128.628C20.8004 128.903 21.002 129.147 21.2769 129.173C21.5518 129.199 21.7959 128.998 21.8221 128.723L20.8266 128.628ZM21.2056 124.646L20.8266 128.628L21.8221 128.723L22.2011 124.741L21.2056 124.646Z" fill="#B4F9C0"/>
<path d="M8.52368 115.402L8.14461 119.384" stroke="#B4F9C0" stroke-linecap="round"/>
<rect x="2.17163" y="118.815" width="12" height="15" rx="2" transform="rotate(5.4379 2.17163 118.815)" fill="#B4F9C0"/>
<path d="M5.84633 138.251C5.82016 138.526 6.02179 138.77 6.29669 138.796C6.57159 138.822 6.81566 138.621 6.84183 138.346L5.84633 138.251ZM6.22539 134.269L5.84633 138.251L6.84183 138.346L7.22089 134.364L6.22539 134.269Z" fill="#B4F9C0"/>
<path d="M38.9573 91.1768L38.5782 95.1588" stroke="#B4F9C0" stroke-linecap="round"/>
<rect x="32.6052" y="94.5903" width="12" height="23" rx="2" transform="rotate(5.4379 32.6052 94.5903)" fill="#B4F9C0"/>
<path d="M35.5219 121.99C35.4957 122.265 35.6973 122.509 35.9722 122.535C36.2471 122.562 36.4912 122.36 36.5174 122.085L35.5219 121.99ZM35.9009 118.008L35.5219 121.99L36.5174 122.085L36.8964 118.103L35.9009 118.008Z" fill="#B4F9C0"/>
<path d="M54.0276 80.5586L53.6485 84.5406" stroke="#B4F9C0" stroke-linecap="round"/>
<rect x="47.6755" y="83.9722" width="12" height="13" rx="2" transform="rotate(5.4379 47.6755 83.9722)" fill="#B4F9C0"/>
<path d="M51.5399 101.417C51.5138 101.692 51.7154 101.936 51.9903 101.962C52.2652 101.988 52.5093 101.787 52.5354 101.512L51.5399 101.417ZM51.919 97.435L51.5399 101.417L52.5354 101.512L52.9145 97.5298L51.919 97.435Z" fill="#B4F9C0"/>
<path d="M69.3909 66.9512L69.0118 70.9332" stroke="#B4F9C0" stroke-linecap="round"/>
<rect x="63.0388" y="70.3647" width="12" height="23" rx="2" transform="rotate(5.4379 63.0388 70.3647)" fill="#B4F9C0"/>
<path d="M65.9555 97.7647C65.9293 98.0396 66.1309 98.2837 66.4058 98.3098C66.6807 98.336 66.9248 98.1344 66.951 97.8595L65.9555 97.7647ZM66.3345 93.7827L65.9555 97.7647L66.951 97.8595L67.33 93.8775L66.3345 93.7827Z" fill="#B4F9C0"/>
<path d="M84.4651 56.332L84.086 60.314" stroke="#B4F9C0" stroke-linecap="round"/>
<rect x="78.113" y="59.7456" width="12" height="26" rx="2" transform="rotate(5.4379 78.113 59.7456)" fill="#B4F9C0"/>
<path d="M80.7453 90.1319C80.7191 90.4068 80.9207 90.6508 81.1956 90.677C81.4705 90.7032 81.7146 90.5015 81.7408 90.2266L80.7453 90.1319ZM81.1243 86.1499L80.7453 90.1319L81.7408 90.2266L82.1198 86.2446L81.1243 86.1499Z" fill="#B4F9C0"/>
<path d="M99.1526 49.6963L98.7735 53.6783" stroke="#B4F9C0" stroke-linecap="round"/>
<rect x="92.8005" y="53.1099" width="12" height="25" rx="2" transform="rotate(5.4379 92.8005 53.1099)" fill="#B4F9C0"/>
<path d="M95.5277 82.5005C95.5016 82.7754 95.7032 83.0195 95.9781 83.0457C96.253 83.0718 96.4971 82.8702 96.5232 82.5953L95.5277 82.5005ZM95.9068 78.5185L95.5277 82.5005L96.5232 82.5953L96.9023 78.6133L95.9068 78.5185Z" fill="#B4F9C0"/>
<path d="M116.985 10.207L116.606 14.189" stroke="#B4F9C0" stroke-linecap="round"/>
<rect x="110.633" y="13.6206" width="12" height="55" rx="2" transform="rotate(5.4379 110.633 13.6206)" fill="#B4F9C0"/>
<path d="M110.517 72.8765C110.491 73.1514 110.692 73.3955 110.967 73.4216C111.242 73.4478 111.486 73.2462 111.512 72.9713L110.517 72.8765ZM110.896 68.8945L110.517 72.8765L111.512 72.9713L111.891 68.9893L110.896 68.8945Z" fill="#B4F9C0"/>
</svg>
