<svg width="16" height="10" viewBox="0 0 16 10" fill="none" xmlns="http://www.w3.org/2000/svg">
<path d="M11.8309 10L9.95802 10C9.55057 10 9.3142 9.5388 9.55212 9.20803L11.2198 6.88953C11.4577 6.55876 11.2214 6.09756 10.8139 6.09756L0.5 6.09756C0.223857 6.09756 -1.80366e-07 5.8737 -1.92437e-07 5.59756L-2.44677e-07 4.40244C-2.56748e-07 4.1263 0.223858 3.90244 0.500001 3.90244L10.8139 3.90244C11.2214 3.90244 11.4577 3.44124 11.2198 3.11047L9.55212 0.791964C9.3142 0.461199 9.55057 -4.17469e-07 9.95802 -4.35279e-07L11.8236 -5.16825e-07C11.979 -5.23621e-07 12.1257 0.0723032 12.2203 0.195637L15.7607 4.81005C15.9011 4.99308 15.8981 5.24844 15.7534 5.42809L12.2203 9.81368C12.1254 9.9315 11.9822 10 11.8309 10Z" fill="#1E1E1E"/>
</svg>
