<svg width="16" height="16" viewBox="0 0 16 16" fill="none" xmlns="http://www.w3.org/2000/svg">
<g id="instagram">
<path id="Vector" d="M5.08219 1C2.83111 1 1 2.83281 1 5.08447V10.9178C1 13.1689 2.83281 15 5.08447 15H10.9178C13.1689 15 15 13.1672 15 10.9155V5.08219C15 2.83111 13.1672 1 10.9155 1H5.08219ZM12.0833 3.33333C12.4053 3.33333 12.6667 3.59467 12.6667 3.91667C12.6667 4.23867 12.4053 4.5 12.0833 4.5C11.7613 4.5 11.5 4.23867 11.5 3.91667C11.5 3.59467 11.7613 3.33333 12.0833 3.33333ZM8 4.5C9.93025 4.5 11.5 6.06975 11.5 8C11.5 9.93025 9.93025 11.5 8 11.5C6.06975 11.5 4.5 9.93025 4.5 8C4.5 6.06975 6.06975 4.5 8 4.5ZM8 5.66667C7.38116 5.66667 6.78767 5.9125 6.35008 6.35008C5.9125 6.78767 5.66667 7.38116 5.66667 8C5.66667 8.61884 5.9125 9.21233 6.35008 9.64991C6.78767 10.0875 7.38116 10.3333 8 10.3333C8.61884 10.3333 9.21233 10.0875 9.64991 9.64991C10.0875 9.21233 10.3333 8.61884 10.3333 8C10.3333 7.38116 10.0875 6.78767 9.64991 6.35008C9.21233 5.9125 8.61884 5.66667 8 5.66667Z" fill="#F3F3F3"/>
</g>
</svg>
