<svg width="16" height="16" viewBox="0 0 16 16" fill="none" xmlns="http://www.w3.org/2000/svg">
<path d="M13.035 1.99816C12.8671 2.00597 12.7089 2.0548 12.5682 2.10949H12.5663C12.4237 2.16613 11.746 2.45128 10.7167 2.88292C9.68739 3.31652 8.35145 3.87902 7.02528 4.43761C4.37684 5.55285 1.77332 6.6505 1.77332 6.6505L1.80457 6.63878C1.80457 6.63878 1.62489 6.69738 1.43739 6.82628C1.34168 6.88878 1.23621 6.97472 1.14442 7.10949C1.05262 7.24425 0.978402 7.45128 1.00575 7.66417C1.05067 8.0255 1.28504 8.2423 1.45301 8.36144C1.62293 8.48253 1.78504 8.53917 1.78504 8.53917H1.78895L4.23036 9.36144C4.33973 9.713 4.9745 11.7989 5.12684 12.2794C5.21668 12.5665 5.30457 12.7462 5.41395 12.8829C5.46668 12.9532 5.52918 13.0118 5.6034 13.0587C5.6327 13.0763 5.66395 13.09 5.6952 13.1017C5.70496 13.1075 5.71473 13.1095 5.72645 13.1114L5.70106 13.1056C5.70887 13.1075 5.71473 13.1134 5.72059 13.1153C5.74012 13.1212 5.75379 13.1232 5.77918 13.1271C6.1659 13.2443 6.47645 13.004 6.47645 13.004L6.49403 12.9903L7.93543 11.6778L10.3514 13.5314L10.4061 13.5548C10.91 13.7755 11.4198 13.6525 11.6893 13.4357C11.9608 13.2169 12.0663 12.9376 12.0663 12.9376L12.0839 12.8927L13.9511 3.32824C14.0038 3.09191 14.0175 2.8712 13.9589 2.65636C13.9003 2.44152 13.7499 2.24035 13.5682 2.13292C13.3847 2.02355 13.203 1.99035 13.035 1.99816ZM12.9843 3.02355C12.9823 3.0548 12.9882 3.05089 12.9745 3.11144V3.1173L11.1249 12.5821C11.1171 12.5958 11.1034 12.6251 11.0663 12.6544C11.0272 12.6857 10.996 12.7052 10.8339 12.6407L7.87879 10.3751L6.09364 12.0021L6.46864 9.60753C6.46864 9.60753 11.0975 5.29308 11.2968 5.10753C11.496 4.92199 11.4296 4.88292 11.4296 4.88292C11.4432 4.65636 11.1288 4.81652 11.1288 4.81652L5.0409 8.588L5.03895 8.57824L2.12098 7.59581V7.59386C2.11903 7.59386 2.11512 7.59191 2.11317 7.59191C2.11512 7.59191 2.12879 7.58605 2.12879 7.58605L2.14442 7.57824L2.16004 7.57238C2.16004 7.57238 4.76551 6.47472 7.41395 5.35949C8.74012 4.80089 10.0761 4.23839 11.1034 3.8048C12.1307 3.37316 12.8905 3.05675 12.9335 3.03917C12.9745 3.02355 12.955 3.02355 12.9843 3.02355Z" fill="#F3F3F3"/>
</svg>
